<svg width="20" height="20" viewBox="0 0 20 20" fill="none" xmlns="http://www.w3.org/2000/svg">
<path d="M8.09174 9.40841C7.93482 9.25149 7.72199 9.16333 7.50007 9.16333C7.27816 9.16333 7.06533 9.25149 6.90841 9.40841C6.75149 9.56533 6.66333 9.77816 6.66333 10.0001C6.66333 10.222 6.75149 10.4348 6.90841 10.5917L9.40841 13.0917C9.48627 13.169 9.57862 13.2301 9.68015 13.2716C9.78168 13.313 9.8904 13.334 10.0001 13.3334C10.1142 13.3298 10.2263 13.3028 10.3295 13.254C10.4327 13.2053 10.5248 13.1359 10.6001 13.0501L16.4334 6.38341C16.5681 6.21618 16.633 6.00342 16.6147 5.78948C16.5963 5.57554 16.4961 5.37694 16.3349 5.23508C16.1737 5.09323 15.964 5.01907 15.7495 5.02808C15.5349 5.03708 15.3322 5.12855 15.1834 5.28341L10.0001 11.2834L8.09174 9.40841Z" fill="black"/>
<path d="M17.5 9.16797C17.279 9.16797 17.067 9.25577 16.9108 9.41205C16.7545 9.56833 16.6667 9.78029 16.6667 10.0013C16.6667 11.7694 15.9643 13.4651 14.7141 14.7153C13.4638 15.9656 11.7681 16.668 10 16.668C8.68341 16.6674 7.39648 16.2769 6.30148 15.5459C5.20648 14.8149 4.35244 13.776 3.84707 12.5603C3.34171 11.3445 3.20763 10.0064 3.46175 8.71454C3.71587 7.42271 4.34681 6.23504 5.27501 5.3013C5.89226 4.67579 6.62807 4.17967 7.43939 3.84198C8.2507 3.50429 9.12122 3.33181 10 3.33464C10.5329 3.33797 11.0638 3.39945 11.5833 3.51797C11.6921 3.5516 11.8065 3.5626 11.9197 3.5503C12.0328 3.538 12.1422 3.50266 12.2412 3.44645C12.3401 3.39024 12.4265 3.31436 12.495 3.22349C12.5635 3.13261 12.6127 3.02867 12.6395 2.91806C12.6663 2.80746 12.6701 2.69254 12.6508 2.58039C12.6315 2.46823 12.5894 2.36123 12.5272 2.26596C12.4649 2.1707 12.3838 2.08919 12.2888 2.02648C12.1939 1.96376 12.0871 1.92116 11.975 1.9013C11.3276 1.749 10.6651 1.67072 10 1.66797C8.35362 1.67652 6.74666 2.17257 5.38192 3.09351C4.01718 4.01446 2.95582 5.31902 2.33177 6.84258C1.70773 8.36613 1.54897 10.0404 1.87554 11.6541C2.2021 13.2678 2.99935 14.7486 4.16667 15.9096C5.71392 17.4576 7.81138 18.3295 10 18.3346C12.2101 18.3346 14.3298 17.4567 15.8926 15.8939C17.4554 14.3311 18.3333 12.2114 18.3333 10.0013C18.3333 9.78029 18.2455 9.56833 18.0893 9.41205C17.933 9.25577 17.721 9.16797 17.5 9.16797Z" fill="black"/>
</svg>
